solid E46 radio bracket
facet normal 1.0 -1.804431892883248e-62 6.732829123814846e-32
  outer loop
    vertex 219.5000000000001 51.99999999999999 0.0
    vertex 219.5000000000001 34.499999999999986 23.0
    vertex 219.5000000000001 34.499999999999986 0.0
  endloop
endfacet
facet normal 1.0 -1.804431892883248e-62 6.732829123814846e-32
  outer loop
    vertex 219.5000000000001 34.499999999999986 23.0
    vertex 219.5000000000001 51.99999999999999 0.0
    vertex 219.5000000000001 51.99999999999999 23.0
  endloop
endfacet
facet normal 0.0 1.0 1.628836183095508e-31
  outer loop
    vertex 0.0 0.0 23.0
    vertex 224.0 0.0 0.0
    vertex 0.0 0.0 0.0
  endloop
endfacet
facet normal 0.0 1.0 1.628836183095508e-31
  outer loop
    vertex 224.0 0.0 0.0
    vertex 0.0 0.0 23.0
    vertex 224.0 0.0 23.0
  endloop
endfacet
facet normal -0.555570233019623 0.8314696123025312 9.802718451428447e-32
  outer loop
    vertex 3.2499999999999116 32.3349364905389 23.0
    vertex 3.521903572521706 32.51661664927192 0.0
    vertex 3.2499999999999116 32.3349364905389 0.0
  endloop
endfacet
facet normal -0.555570233019623 0.8314696123025312 9.802718451428447e-32
  outer loop
    vertex 3.521903572521706 32.51661664927192 0.0
    vertex 3.2499999999999116 32.3349364905389 23.0
    vertex 3.521903572521706 32.51661664927192 23.0
  endloop
endfacet
facet normal -0.321439465303183 -0.9469301294950984 -1.7588137571386052e-31
  outer loop
    vertex 220.83531429703868 30.153333781699196 23.0
    vertex 220.27792455435716 30.342542103699223 0.0
    vertex 220.83531429703868 30.153333781699196 0.0
  endloop
endfacet
facet normal -0.321439465303183 -0.9469301294950984 -1.7588137571386052e-31
  outer loop
    vertex 220.27792455435716 30.342542103699223 0.0
    vertex 220.83531429703868 30.153333781699196 23.0
    vertex 220.27792455435716 30.342542103699223 23.0
  endloop
endfacet
facet normal 1.0 1.1242179085439108e-62 6.732829123814846e-32
  outer loop
    vertex 0.0 29.99999999999999 0.0
    vertex 0.0 0.0 23.0
    vertex 0.0 0.0 0.0
  endloop
endfacet
facet normal 1.0 1.1242179085439108e-62 6.732829123814846e-32
  outer loop
    vertex 0.0 0.0 23.0
    vertex 0.0 29.99999999999999 0.0
    vertex 0.0 29.99999999999999 23.0
  endloop
endfacet
facet normal 0.0 1.0 0.0
  outer loop
    vertex 4.499999999999898 51.99999999999999 23.0
    vertex 9.499999999999899 51.99999999999999 0.0
    vertex 4.499999999999898 51.99999999999999 0.0
  endloop
endfacet
facet normal 0.0 1.0 0.0
  outer loop
    vertex 9.499999999999899 51.99999999999999 0.0
    vertex 4.499999999999898 51.99999999999999 23.0
    vertex 9.499999999999899 51.99999999999999 5.9897059999999955
  endloop
endfacet
facet normal 0.0 1.0 0.0
  outer loop
    vertex 9.499999999999899 51.99999999999999 5.9897059999999955
    vertex 4.499999999999898 51.99999999999999 23.0
    vertex 21.499999999999897 51.99999999999999 5.9897059999999955
  endloop
endfacet
facet normal 0.0 1.0 0.0
  outer loop
    vertex 21.499999999999897 51.99999999999999 5.9897059999999955
    vertex 4.499999999999898 51.99999999999999 23.0
    vertex 92.99999958236442 51.99999999999999 5.996661775882663
  endloop
endfacet
facet normal 0.0 1.0 0.0
  outer loop
    vertex 92.99999958236442 51.99999999999999 5.996661775882663
    vertex 4.499999999999898 51.99999999999999 23.0
    vertex 202.50000000000014 51.99999999999999 5.998099000000006
  endloop
endfacet
facet normal 0.0 1.0 0.0
  outer loop
    vertex 202.50000000000014 51.99999999999999 5.998099000000006
    vertex 4.499999999999898 51.99999999999999 23.0
    vertex 214.5000000000001 51.99999999999999 5.998099000000006
  endloop
endfacet
facet normal 0.0 1.0 0.0
  outer loop
    vertex 214.5000000000001 51.99999999999999 5.998099000000006
    vertex 219.5000000000001 51.99999999999999 0.0
    vertex 214.5000000000001 51.99999999999999 0.0
  endloop
endfacet
facet normal 0.0 1.0 0.0
  outer loop
    vertex 219.5000000000001 51.99999999999999 0.0
    vertex 214.5000000000001 51.99999999999999 5.998099000000006
    vertex 219.5000000000001 51.99999999999999 23.0
  endloop
endfacet
facet normal 0.0 1.0 0.0
  outer loop
    vertex 219.5000000000001 51.99999999999999 23.0
    vertex 214.5000000000001 51.99999999999999 5.998099000000006
    vertex 4.499999999999898 51.99999999999999 23.0
  endloop
endfacet
facet normal 0.0 1.0 0.0
  outer loop
    vertex 92.99999958236442 51.99999999999999 0.0006599907593259679
    vertex 202.50000000000014 51.99999999999999 5.998099000000006
    vertex 202.50000000000014 51.99999999999999 0.0
  endloop
endfacet
facet normal 0.0 1.0 0.0
  outer loop
    vertex 202.50000000000014 51.99999999999999 5.998099000000006
    vertex 92.99999958236442 51.99999999999999 0.0006599907593259679
    vertex 92.99999958236442 51.99999999999999 5.996661775882663
  endloop
endfacet
facet normal 0.0 1.0 0.0
  outer loop
    vertex 21.499999999999897 51.99999999999999 5.9897059999999955
    vertex 80.00000001795242 51.99999999999999 2.8199664825478975e-15
    vertex 21.499999999999897 51.99999999999999 0.0
  endloop
endfacet
facet normal 0.0 1.0 0.0
  outer loop
    vertex 80.00000001795242 51.99999999999999 2.8199664825478975e-15
    vertex 21.499999999999897 51.99999999999999 5.9897059999999955
    vertex 80.00000001795242 51.99999999999999 5.980161999999989
  endloop
endfacet
facet normal 0.0 1.0 0.0
  outer loop
    vertex 80.00000001795242 51.99999999999999 5.980161999999989
    vertex 21.499999999999897 51.99999999999999 5.9897059999999955
    vertex 92.99999958236442 51.99999999999999 5.996661775882663
  endloop
endfacet
facet normal -0.8968727415326875 -0.44228869021900313 -1.3242649134573267e-31
  outer loop
    vertex 217.8425421036993 32.77792455435711 23.0
    vertex 218.1028856829701 32.25000000000002 0.0
    vertex 218.1028856829701 32.25000000000002 23.0
  endloop
endfacet
facet normal -0.8968727415326875 -0.44228869021900313 -1.3242649134573267e-31
  outer loop
    vertex 218.1028856829701 32.25000000000002 0.0
    vertex 217.8425421036993 32.77792455435711 23.0
    vertex 217.8425421036993 32.77792455435711 0.0
  endloop
endfacet
facet normal -0.7518398074789855 0.6593458151000597 5.677654255837918e-32
  outer loop
    vertex 3.98338335072798 32.97809642747821 23.0
    vertex 3.7677669529662667 32.73223304703364 0.0
    vertex 3.7677669529662667 32.73223304703364 23.0
  endloop
endfacet
facet normal -0.7518398074789855 0.6593458151000597 5.677654255837918e-32
  outer loop
    vertex 3.7677669529662667 32.73223304703364 0.0
    vertex 3.98338335072798 32.97809642747821 23.0
    vertex 3.98338335072798 32.97809642747821 0.0
  endloop
endfacet
facet normal -0.06540312923014263 -0.9978589232386036 -1.6693835291226935e-31
  outer loop
    vertex 222.0 29.99999999999999 23.0
    vertex 221.4126321350098 30.038498123817842 0.0
    vertex 222.0 29.99999999999999 0.0
  endloop
endfacet
facet normal -0.06540312923014263 -0.9978589232386036 -1.6693835291226935e-31
  outer loop
    vertex 221.4126321350098 30.038498123817842 0.0
    vertex 222.0 29.99999999999999 23.0
    vertex 221.4126321350098 30.038498123817842 23.0
  endloop
endfacet
facet normal -1.0 2.248435803394978e-62 -6.732829123814846e-32
  outer loop
    vertex 224.0 29.99999999999999 23.0
    vertex 224.0 0.0 0.0
    vertex 224.0 0.0 23.0
  endloop
endfacet
facet normal -1.0 2.248435803394978e-62 -6.732829123814846e-32
  outer loop
    vertex 224.0 0.0 0.0
    vertex 224.0 29.99999999999999 23.0
    vertex 224.0 29.99999999999999 0.0
  endloop
endfacet
facet normal -0.8968727415326925 0.4422886902189932 1.1656673054791865e-32
  outer loop
    vertex 4.309698831278099 33.543291419087275 23.0
    vertex 4.165063509460983 33.25 0.0
    vertex 4.165063509460983 33.25 23.0
  endloop
endfacet
facet normal -0.8968727415326925 0.4422886902189932 1.1656673054791865e-32
  outer loop
    vertex 4.165063509460983 33.25 0.0
    vertex 4.309698831278099 33.543291419087275 23.0
    vertex 4.309698831278099 33.543291419087275 0.0
  endloop
endfacet
facet normal -0.9807852804032313 0.19509032201612467 -3.4257579453916057e-32
  outer loop
    vertex 4.478612153434403 34.173684519449864 23.0
    vertex 4.414814565722549 33.85295238724369 0.0
    vertex 4.414814565722549 33.85295238724369 23.0
  endloop
endfacet
facet normal -0.9807852804032313 0.19509032201612467 -3.4257579453916057e-32
  outer loop
    vertex 4.414814565722549 33.85295238724369 0.0
    vertex 4.478612153434403 34.173684519449864 23.0
    vertex 4.478612153434403 34.173684519449864 0.0
  endloop
endfacet
facet normal -0.1950903220161564 -0.9807852804032249 -1.7288895327527255e-31
  outer loop
    vertex 221.4126321350098 30.038498123817842 23.0
    vertex 220.83531429703868 30.153333781699196 0.0
    vertex 221.4126321350098 30.038498123817842 0.0
  endloop
endfacet
facet normal -0.1950903220161564 -0.9807852804032249 -1.7288895327527255e-31
  outer loop
    vertex 220.83531429703868 30.153333781699196 0.0
    vertex 221.4126321350098 30.038498123817842 23.0
    vertex 220.83531429703868 30.153333781699196 23.0
  endloop
endfacet
facet normal 0.9807852804032496 0.19509032201603219 9.781161454822581e-32
  outer loop
    vertex 219.52138784656563 34.173684519449864 0.0
    vertex 219.58518543427746 33.85295238724369 23.0
    vertex 219.58518543427746 33.85295238724369 0.0
  endloop
endfacet
facet normal 0.9807852804032496 0.19509032201603219 9.781161454822581e-32
  outer loop
    vertex 219.58518543427746 33.85295238724369 23.0
    vertex 219.52138784656563 34.173684519449864 0.0
    vertex 219.52138784656563 34.173684519449864 23.0
  endloop
endfacet
facet normal 0.0 -1.0 -0.0
  outer loop
    vertex 80.00000001795242 49.99999999999999 2.8199664825478975e-15
    vertex 21.499999999999897 49.99999999999999 5.9897059999999955
    vertex 21.499999999999897 49.99999999999999 0.0
  endloop
endfacet
facet normal 0.0 -1.0 -0.0
  outer loop
    vertex 21.499999999999897 49.99999999999999 5.9897059999999955
    vertex 80.00000001795242 49.99999999999999 2.8199664825478975e-15
    vertex 80.00000001795242 49.99999999999999 5.996001785123339
  endloop
endfacet
facet normal 0.0 -1.0 -0.0
  outer loop
    vertex 21.499999999999897 49.99999999999999 5.9897059999999955
    vertex 80.00000001795242 49.99999999999999 5.996001785123339
    vertex 9.499999999999899 49.99999999999999 5.9897059999999955
  endloop
endfacet
facet normal 0.0 -1.0 -0.0
  outer loop
    vertex 202.50000000000014 49.99999999999999 5.998099000000006
    vertex 92.99999958236442 49.99999999999999 0.0006599907593259679
    vertex 202.50000000000014 49.99999999999999 0.0
  endloop
endfacet
facet normal 0.0 -1.0 -0.0
  outer loop
    vertex 92.99999958236442 49.99999999999999 0.0006599907593259679
    vertex 202.50000000000014 49.99999999999999 5.998099000000006
    vertex 92.99999958236442 49.99999999999999 5.996661775882663
  endloop
endfacet
facet normal 0.0 -1.0 -0.0
  outer loop
    vertex 217.5000000000001 49.99999999999999 23.0
    vertex 214.5000000000001 49.99999999999999 0.0
    vertex 217.5000000000001 49.99999999999999 0.0
  endloop
endfacet
facet normal 0.0 -1.0 -0.0
  outer loop
    vertex 214.5000000000001 49.99999999999999 0.0
    vertex 217.5000000000001 49.99999999999999 23.0
    vertex 214.5000000000001 49.99999999999999 5.998099000000006
  endloop
endfacet
facet normal 0.0 -1.0 -0.0
  outer loop
    vertex 214.5000000000001 49.99999999999999 5.998099000000006
    vertex 217.5000000000001 49.99999999999999 23.0
    vertex 202.50000000000014 49.99999999999999 5.998099000000006
  endloop
endfacet
facet normal 0.0 -1.0 -0.0
  outer loop
    vertex 9.499999999999899 49.99999999999999 5.9897059999999955
    vertex 6.499999999999898 49.99999999999999 0.0
    vertex 9.499999999999899 49.99999999999999 0.0
  endloop
endfacet
facet normal 0.0 -1.0 -0.0
  outer loop
    vertex 6.499999999999898 49.99999999999999 0.0
    vertex 9.499999999999899 49.99999999999999 5.9897059999999955
    vertex 6.499999999999898 49.99999999999999 23.0
  endloop
endfacet
facet normal 0.0 -1.0 -0.0
  outer loop
    vertex 6.499999999999898 49.99999999999999 23.0
    vertex 9.499999999999899 49.99999999999999 5.9897059999999955
    vertex 80.00000001795242 49.99999999999999 5.996001785123339
  endloop
endfacet
facet normal 0.0 -1.0 -0.0
  outer loop
    vertex 6.499999999999898 49.99999999999999 23.0
    vertex 80.00000001795242 49.99999999999999 5.996001785123339
    vertex 92.99999958236442 49.99999999999999 5.996661775882663
  endloop
endfacet
facet normal 0.0 -1.0 -0.0
  outer loop
    vertex 6.499999999999898 49.99999999999999 23.0
    vertex 92.99999958236442 49.99999999999999 5.996661775882663
    vertex 202.50000000000014 49.99999999999999 5.998099000000006
  endloop
endfacet
facet normal 0.0 -1.0 -0.0
  outer loop
    vertex 6.499999999999898 49.99999999999999 23.0
    vertex 202.50000000000014 49.99999999999999 5.998099000000006
    vertex 217.5000000000001 49.99999999999999 23.0
  endloop
endfacet
facet normal -0.9469301294951076 0.32143946530315626 -1.1397964364758844e-32
  outer loop
    vertex 4.414814565722549 33.85295238724369 23.0
    vertex 4.309698831278099 33.543291419087275 0.0
    vertex 4.309698831278099 33.543291419087275 23.0
  endloop
endfacet
facet normal -0.9469301294951076 0.32143946530315626 -1.1397964364758844e-32
  outer loop
    vertex 4.309698831278099 33.543291419087275 0.0
    vertex 4.414814565722549 33.85295238724369 23.0
    vertex 4.414814565722549 33.85295238724369 0.0
  endloop
endfacet
facet normal 0.9807852804032134 -0.19509032201621354 3.4257579453900385e-32
  outer loop
    vertex 6.4615018761820355 33.912632135009765 0.0
    vertex 6.346666218300645 33.335314297038664 23.0
    vertex 6.346666218300645 33.335314297038664 0.0
  endloop
endfacet
facet normal 0.9807852804032134 -0.19509032201621354 3.4257579453900385e-32
  outer loop
    vertex 6.346666218300645 33.335314297038664 23.0
    vertex 6.4615018761820355 33.912632135009765 0.0
    vertex 6.4615018761820355 33.912632135009765 23.0
  endloop
endfacet
facet normal -0.6593458151000793 0.7518398074789683 7.806976116561787e-32
  outer loop
    vertex 3.521903572521706 32.51661664927192 23.0
    vertex 3.7677669529662667 32.73223304703364 0.0
    vertex 3.521903572521706 32.51661664927192 0.0
  endloop
endfacet
facet normal -0.6593458151000793 0.7518398074789683 7.806976116561787e-32
  outer loop
    vertex 3.7677669529662667 32.73223304703364 0.0
    vertex 3.521903572521706 32.51661664927192 23.0
    vertex 3.7677669529662667 32.73223304703364 23.0
  endloop
endfacet
facet normal -0.4422886902190224 -0.896872741532678 -1.7586441905045468e-31
  outer loop
    vertex 220.27792455435716 30.342542103699223 23.0
    vertex 219.75000000000006 30.602885682970047 0.0
    vertex 220.27792455435716 30.342542103699223 0.0
  endloop
endfacet
facet normal -0.4422886902190224 -0.896872741532678 -1.7586441905045468e-31
  outer loop
    vertex 219.75000000000006 30.602885682970047 0.0
    vertex 220.27792455435716 30.342542103699223 23.0
    vertex 219.75000000000006 30.602885682970047 23.0
  endloop
endfacet
facet normal -0.5555702330196244 -0.8314696123025306 -1.7283837341826683e-31
  outer loop
    vertex 219.75000000000006 30.602885682970047 23.0
    vertex 219.26057356946083 30.92990996868947 0.0
    vertex 219.75000000000006 30.602885682970047 0.0
  endloop
endfacet
facet normal -0.5555702330196244 -0.8314696123025306 -1.7283837341826683e-31
  outer loop
    vertex 219.26057356946083 30.92990996868947 0.0
    vertex 219.75000000000006 30.602885682970047 23.0
    vertex 219.26057356946083 30.92990996868947 23.0
  endloop
endfacet
facet normal 0.3214394653031947 -0.9469301294950945 -1.3259743584312427e-31
  outer loop
    vertex 3.722075445642829 30.342542103699223 23.0
    vertex 3.164685702961309 30.153333781699196 0.0
    vertex 3.722075445642829 30.342542103699223 0.0
  endloop
endfacet
facet normal 0.3214394653031947 -0.9469301294950945 -1.3259743584312427e-31
  outer loop
    vertex 3.164685702961309 30.153333781699196 0.0
    vertex 3.722075445642829 30.342542103699223 23.0
    vertex 3.164685702961309 30.153333781699196 23.0
  endloop
endfacet
facet normal 0.9978589232386026 -0.06540312923015984 5.653103786061828e-32
  outer loop
    vertex 6.499999999999898 34.499999999999986 0.0
    vertex 6.4615018761820355 33.912632135009765 23.0
    vertex 6.4615018761820355 33.912632135009765 0.0
  endloop
endfacet
facet normal 0.9978589232386026 -0.06540312923015984 5.653103786061828e-32
  outer loop
    vertex 6.4615018761820355 33.912632135009765 23.0
    vertex 6.499999999999898 34.499999999999986 0.0
    vertex 6.499999999999898 34.499999999999986 23.0
  endloop
endfacet
facet normal 0.0 -1.0 -1.6288361830955076e-31
  outer loop
    vertex 224.0 29.99999999999999 23.0
    vertex 222.0 29.99999999999999 0.0
    vertex 224.0 29.99999999999999 0.0
  endloop
endfacet
facet normal 0.0 -1.0 -1.6288361830955076e-31
  outer loop
    vertex 222.0 29.99999999999999 0.0
    vertex 224.0 29.99999999999999 23.0
    vertex 222.0 29.99999999999999 23.0
  endloop
endfacet
facet normal -0.9978589232386026 -0.06540312923015984 -7.783723453616945e-32
  outer loop
    vertex 217.5000000000001 34.499999999999986 23.0
    vertex 217.538498123818 33.912632135009765 0.0
    vertex 217.538498123818 33.912632135009765 23.0
  endloop
endfacet
facet normal -0.9978589232386026 -0.06540312923015984 -7.783723453616945e-32
  outer loop
    vertex 217.538498123818 33.912632135009765 0.0
    vertex 217.5000000000001 34.499999999999986 23.0
    vertex 217.5000000000001 34.499999999999986 0.0
  endloop
endfacet
facet normal -1.0 0.0 -6.732829123814847e-32
  outer loop
    vertex 217.5000000000001 49.99999999999999 23.0
    vertex 217.5000000000001 34.499999999999986 0.0
    vertex 217.5000000000001 34.499999999999986 23.0
  endloop
endfacet
facet normal -1.0 0.0 -6.732829123814847e-32
  outer loop
    vertex 217.5000000000001 34.499999999999986 0.0
    vertex 217.5000000000001 49.99999999999999 23.0
    vertex 217.5000000000001 49.99999999999999 0.0
  endloop
endfacet
facet normal -0.9978589232386037 0.06540312923014145 -5.653103786062136e-32
  outer loop
    vertex 4.499999999999876 34.499999999999986 23.0
    vertex 4.478612153434403 34.173684519449864 0.0
    vertex 4.478612153434403 34.173684519449864 23.0
  endloop
endfacet
facet normal -0.9978589232386037 0.06540312923014145 -5.653103786062136e-32
  outer loop
    vertex 4.478612153434403 34.173684519449864 0.0
    vertex 4.499999999999876 34.499999999999986 23.0
    vertex 4.499999999999876 34.499999999999986 0.0
  endloop
endfacet
facet normal -0.8314696123025497 0.5555702330195958 3.4511861566535584e-32
  outer loop
    vertex 4.165063509460983 33.25 23.0
    vertex 3.98338335072798 32.97809642747821 0.0
    vertex 3.98338335072798 32.97809642747821 23.0
  endloop
endfacet
facet normal -0.8314696123025497 0.5555702330195958 3.4511861566535584e-32
  outer loop
    vertex 3.98338335072798 32.97809642747821 0.0
    vertex 4.165063509460983 33.25 23.0
    vertex 4.165063509460983 33.25 0.0
  endloop
endfacet
facet normal 0.9978589232385964 0.06540312923025204 7.783723453618403e-32
  outer loop
    vertex 219.5000000000001 34.499999999999986 0.0
    vertex 219.52138784656563 34.173684519449864 23.0
    vertex 219.52138784656563 34.173684519449864 0.0
  endloop
endfacet
facet normal 0.9978589232385964 0.06540312923025204 7.783723453618403e-32
  outer loop
    vertex 219.52138784656563 34.173684519449864 23.0
    vertex 219.5000000000001 34.499999999999986 0.0
    vertex 219.5000000000001 34.499999999999986 23.0
  endloop
endfacet
facet normal -0.6593458151000486 -0.7518398074789951 -1.6685501529704525e-31
  outer loop
    vertex 219.26057356946083 30.92990996868947 23.0
    vertex 218.8180194846606 31.31801948466056 0.0
    vertex 219.26057356946083 30.92990996868947 0.0
  endloop
endfacet
facet normal -0.6593458151000486 -0.7518398074789951 -1.6685501529704525e-31
  outer loop
    vertex 218.8180194846606 31.31801948466056 0.0
    vertex 219.26057356946083 30.92990996868947 23.0
    vertex 218.8180194846606 31.31801948466056 23.0
  endloop
endfacet
facet normal 0.5555702330196598 -0.8314696123025068 -9.802718451427805e-32
  outer loop
    vertex 4.739426430539134 30.92990996868947 23.0
    vertex 4.249999999999958 30.602885682970047 0.0
    vertex 4.739426430539134 30.92990996868947 0.0
  endloop
endfacet
facet normal 0.5555702330196598 -0.8314696123025068 -9.802718451427805e-32
  outer loop
    vertex 4.249999999999958 30.602885682970047 0.0
    vertex 4.739426430539134 30.92990996868947 23.0
    vertex 4.249999999999958 30.602885682970047 23.0
  endloop
endfacet
facet normal 0.0 -1.0 -1.6288361830955076e-31
  outer loop
    vertex 1.9999999999999962 29.99999999999999 23.0
    vertex 0.0 29.99999999999999 0.0
    vertex 1.9999999999999962 29.99999999999999 0.0
  endloop
endfacet
facet normal 0.0 -1.0 -1.6288361830955076e-31
  outer loop
    vertex 0.0 29.99999999999999 0.0
    vertex 1.9999999999999962 29.99999999999999 23.0
    vertex 0.0 29.99999999999999 23.0
  endloop
endfacet
facet normal -0.7518398074789832 -0.6593458151000622 -1.5801672160313662e-31
  outer loop
    vertex 218.42990996868951 31.76057356946078 23.0
    vertex 218.8180194846606 31.31801948466056 0.0
    vertex 218.8180194846606 31.31801948466056 23.0
  endloop
endfacet
facet normal -0.7518398074789832 -0.6593458151000622 -1.5801672160313662e-31
  outer loop
    vertex 218.8180194846606 31.31801948466056 0.0
    vertex 218.42990996868951 31.76057356946078 23.0
    vertex 218.42990996868951 31.76057356946078 0.0
  endloop
endfacet
facet normal 0.6593458151000107 -0.7518398074790285 -7.806976116563231e-32
  outer loop
    vertex 5.181980515339422 31.31801948466056 23.0
    vertex 4.739426430539134 30.92990996868947 0.0
    vertex 5.181980515339422 31.31801948466056 0.0
  endloop
endfacet
facet normal 0.6593458151000107 -0.7518398074790285 -7.806976116563231e-32
  outer loop
    vertex 4.739426430539134 30.92990996868947 0.0
    vertex 5.181980515339422 31.31801948466056 23.0
    vertex 4.739426430539134 30.92990996868947 23.0
  endloop
endfacet
facet normal -0.9469301294951268 -0.3214394653030999 -1.1611241071688173e-31
  outer loop
    vertex 217.65333378169933 33.335314297038664 23.0
    vertex 217.8425421036993 32.77792455435711 0.0
    vertex 217.8425421036993 32.77792455435711 23.0
  endloop
endfacet
facet normal -0.9469301294951268 -0.3214394653030999 -1.1611241071688173e-31
  outer loop
    vertex 217.8425421036993 32.77792455435711 0.0
    vertex 217.65333378169933 33.335314297038664 23.0
    vertex 217.65333378169933 33.335314297038664 0.0
  endloop
endfacet
facet normal -0.8314696123025614 -0.555570233019578 -1.4647471799208636e-31
  outer loop
    vertex 218.1028856829701 32.25000000000002 23.0
    vertex 218.42990996868951 31.76057356946078 0.0
    vertex 218.42990996868951 31.76057356946078 23.0
  endloop
endfacet
facet normal -0.8314696123025614 -0.555570233019578 -1.4647471799208636e-31
  outer loop
    vertex 218.42990996868951 31.76057356946078 0.0
    vertex 218.1028856829701 32.25000000000002 23.0
    vertex 218.1028856829701 32.25000000000002 0.0
  endloop
endfacet
facet normal 0.7518398074790212 -0.6593458151000189 -5.67765425583701e-32
  outer loop
    vertex 5.570090031310464 31.76057356946078 0.0
    vertex 5.181980515339422 31.31801948466056 23.0
    vertex 5.181980515339422 31.31801948466056 0.0
  endloop
endfacet
facet normal 0.7518398074790212 -0.6593458151000189 -5.67765425583701e-32
  outer loop
    vertex 5.181980515339422 31.31801948466056 23.0
    vertex 5.570090031310464 31.76057356946078 0.0
    vertex 5.570090031310464 31.76057356946078 23.0
  endloop
endfacet
facet normal 0.8968727415326875 -0.44228869021900313 -1.1656673054793822e-32
  outer loop
    vertex 6.157457896300671 32.77792455435711 0.0
    vertex 5.897114317029856 32.25000000000002 23.0
    vertex 5.897114317029856 32.25000000000002 0.0
  endloop
endfacet
facet normal 0.8968727415326875 -0.44228869021900313 -1.1656673054793822e-32
  outer loop
    vertex 5.897114317029856 32.25000000000002 23.0
    vertex 6.157457896300671 32.77792455435711 0.0
    vertex 6.157457896300671 32.77792455435711 23.0
  endloop
endfacet
facet normal 1.0 0.0 6.732829123814847e-32
  outer loop
    vertex 6.499999999999898 49.99999999999999 0.0
    vertex 6.499999999999898 34.499999999999986 23.0
    vertex 6.499999999999898 34.499999999999986 0.0
  endloop
endfacet
facet normal 1.0 0.0 6.732829123814847e-32
  outer loop
    vertex 6.499999999999898 34.499999999999986 23.0
    vertex 6.499999999999898 49.99999999999999 0.0
    vertex 6.499999999999898 49.99999999999999 23.0
  endloop
endfacet
facet normal 0.9469301294951268 -0.3214394653030999 1.1397964364769313e-32
  outer loop
    vertex 6.346666218300645 33.335314297038664 0.0
    vertex 6.157457896300671 32.77792455435711 23.0
    vertex 6.157457896300671 32.77792455435711 0.0
  endloop
endfacet
facet normal 0.9469301294951268 -0.3214394653030999 1.1397964364769313e-32
  outer loop
    vertex 6.157457896300671 32.77792455435711 23.0
    vertex 6.346666218300645 33.335314297038664 0.0
    vertex 6.346666218300645 33.335314297038664 23.0
  endloop
endfacet
facet normal 0.1950903220161564 -0.9807852804032249 -1.4661875723837666e-31
  outer loop
    vertex 3.164685702961309 30.153333781699196 23.0
    vertex 2.587367864990203 30.038498123817842 0.0
    vertex 3.164685702961309 30.153333781699196 0.0
  endloop
endfacet
facet normal 0.1950903220161564 -0.9807852804032249 -1.4661875723837666e-31
  outer loop
    vertex 2.587367864990203 30.038498123817842 0.0
    vertex 3.164685702961309 30.153333781699196 23.0
    vertex 2.587367864990203 30.038498123817842 23.0
  endloop
endfacet
facet normal -0.9807852804032282 -0.1950903220161398 -9.781161454824191e-32
  outer loop
    vertex 217.538498123818 33.912632135009765 23.0
    vertex 217.65333378169933 33.335314297038664 0.0
    vertex 217.65333378169933 33.335314297038664 23.0
  endloop
endfacet
facet normal -0.9807852804032282 -0.1950903220161398 -9.781161454824191e-32
  outer loop
    vertex 217.65333378169933 33.335314297038664 0.0
    vertex 217.538498123818 33.912632135009765 23.0
    vertex 217.538498123818 33.912632135009765 0.0
  endloop
endfacet
facet normal 0.4422886902189919 -0.8968727415326929 -1.1630733555764803e-31
  outer loop
    vertex 4.249999999999958 30.602885682970047 23.0
    vertex 3.722075445642829 30.342542103699223 0.0
    vertex 4.249999999999958 30.602885682970047 0.0
  endloop
endfacet
facet normal 0.4422886902189919 -0.8968727415326929 -1.1630733555764803e-31
  outer loop
    vertex 3.722075445642829 30.342542103699223 0.0
    vertex 4.249999999999958 30.602885682970047 23.0
    vertex 3.722075445642829 30.342542103699223 23.0
  endloop
endfacet
facet normal 0.8314696123025614 -0.555570233019578 -3.451186156653188e-32
  outer loop
    vertex 5.897114317029856 32.25000000000002 0.0
    vertex 5.570090031310464 31.76057356946078 23.0
    vertex 5.570090031310464 31.76057356946078 0.0
  endloop
endfacet
facet normal 0.8314696123025614 -0.555570233019578 -3.451186156653188e-32
  outer loop
    vertex 5.570090031310464 31.76057356946078 23.0
    vertex 5.897114317029856 32.25000000000002 0.0
    vertex 5.897114317029856 32.25000000000002 23.0
  endloop
endfacet
facet normal 0.06540312923014263 -0.9978589232386036 -1.5813139104688272e-31
  outer loop
    vertex 2.587367864990203 30.038498123817842 23.0
    vertex 1.9999999999999962 29.99999999999999 0.0
    vertex 2.587367864990203 30.038498123817842 0.0
  endloop
endfacet
facet normal 0.06540312923014263 -0.9978589232386036 -1.5813139104688272e-31
  outer loop
    vertex 1.9999999999999962 29.99999999999999 0.0
    vertex 2.587367864990203 30.038498123817842 23.0
    vertex 1.9999999999999962 29.99999999999999 23.0
  endloop
endfacet
facet normal -6.027312847458984e-06 0.0 -0.9999999999818359
  outer loop
    vertex 202.50000000000014 51.99999999999999 0.0
    vertex 92.99999958236442 49.99999999999999 0.0006599907593259679
    vertex 92.99999958236442 51.99999999999999 0.0006599907593259679
  endloop
endfacet
facet normal -6.027312847458984e-06 0.0 -0.9999999999818359
  outer loop
    vertex 92.99999958236442 49.99999999999999 0.0006599907593259679
    vertex 202.50000000000014 51.99999999999999 0.0
    vertex 202.50000000000014 49.99999999999999 0.0
  endloop
endfacet
facet normal 0.0 0.0 -1.0
  outer loop
    vertex -1.9999999999999998 31.999999999999993 0.0
    vertex 0.0 29.99999999999999 0.0
    vertex -1.9999999999999998 -1.9999999999999998 0.0
  endloop
endfacet
facet normal 0.0 0.0 -1.0
  outer loop
    vertex 0.0 29.99999999999999 0.0
    vertex -1.9999999999999998 31.999999999999993 0.0
    vertex 1.9999999999999372 31.999999999999975 0.0
  endloop
endfacet
facet normal 0.0 0.0 -1.0
  outer loop
    vertex 0.0 29.99999999999999 0.0
    vertex 1.9999999999999372 31.999999999999975 0.0
    vertex 1.9999999999999962 29.99999999999999 0.0
  endloop
endfacet
facet normal 0.0 0.0 -1.0
  outer loop
    vertex 1.9999999999999962 29.99999999999999 0.0
    vertex 1.9999999999999372 31.999999999999975 0.0
    vertex 2.326315480550061 32.02138784656545 0.0
  endloop
endfacet
facet normal 0.0 0.0 -1.0
  outer loop
    vertex 1.9999999999999962 29.99999999999999 0.0
    vertex 2.326315480550061 32.02138784656545 0.0
    vertex 2.587367864990203 30.038498123817842 0.0
  endloop
endfacet
facet normal 0.0 0.0 -1.0
  outer loop
    vertex 2.587367864990203 30.038498123817842 0.0
    vertex 2.326315480550061 32.02138784656545 0.0
    vertex 2.6470476127562277 32.08518543427732 0.0
  endloop
endfacet
facet normal 0.0 0.0 -1.0
  outer loop
    vertex 2.587367864990203 30.038498123817842 0.0
    vertex 2.6470476127562277 32.08518543427732 0.0
    vertex 3.164685702961309 30.153333781699196 0.0
  endloop
endfacet
facet normal 0.0 0.0 -1.0
  outer loop
    vertex 3.164685702961309 30.153333781699196 0.0
    vertex 2.6470476127562277 32.08518543427732 0.0
    vertex 2.956708580912643 32.19030116872178 0.0
  endloop
endfacet
facet normal 0.0 0.0 -1.0
  outer loop
    vertex 3.164685702961309 30.153333781699196 0.0
    vertex 2.956708580912643 32.19030116872178 0.0
    vertex 3.2499999999999116 32.3349364905389 0.0
  endloop
endfacet
facet normal 0.0 0.0 -1.0
  outer loop
    vertex 3.164685702961309 30.153333781699196 0.0
    vertex 3.2499999999999116 32.3349364905389 0.0
    vertex 3.722075445642829 30.342542103699223 0.0
  endloop
endfacet
facet normal 0.0 0.0 -1.0
  outer loop
    vertex 3.722075445642829 30.342542103699223 0.0
    vertex 3.2499999999999116 32.3349364905389 0.0
    vertex 3.521903572521706 32.51661664927192 0.0
  endloop
endfacet
facet normal 0.0 0.0 -1.0
  outer loop
    vertex 3.722075445642829 30.342542103699223 0.0
    vertex 3.521903572521706 32.51661664927192 0.0
    vertex 3.7677669529662667 32.73223304703364 0.0
  endloop
endfacet
facet normal 0.0 0.0 -1.0
  outer loop
    vertex 3.722075445642829 30.342542103699223 0.0
    vertex 3.7677669529662667 32.73223304703364 0.0
    vertex 4.249999999999958 30.602885682970047 0.0
  endloop
endfacet
facet normal 0.0 0.0 -1.0
  outer loop
    vertex 4.249999999999958 30.602885682970047 0.0
    vertex 3.7677669529662667 32.73223304703364 0.0
    vertex 3.98338335072798 32.97809642747821 0.0
  endloop
endfacet
facet normal 0.0 0.0 -1.0
  outer loop
    vertex 4.249999999999958 30.602885682970047 0.0
    vertex 3.98338335072798 32.97809642747821 0.0
    vertex 4.165063509460983 33.25 0.0
  endloop
endfacet
facet normal 0.0 0.0 -1.0
  outer loop
    vertex 4.249999999999958 30.602885682970047 0.0
    vertex 4.165063509460983 33.25 0.0
    vertex 4.309698831278099 33.543291419087275 0.0
  endloop
endfacet
facet normal 0.0 0.0 -1.0
  outer loop
    vertex 4.249999999999958 30.602885682970047 0.0
    vertex 4.309698831278099 33.543291419087275 0.0
    vertex 4.739426430539134 30.92990996868947 0.0
  endloop
endfacet
facet normal 0.0 0.0 -1.0
  outer loop
    vertex 4.739426430539134 30.92990996868947 0.0
    vertex 4.309698831278099 33.543291419087275 0.0
    vertex 4.414814565722549 33.85295238724369 0.0
  endloop
endfacet
facet normal 0.0 0.0 -1.0
  outer loop
    vertex 4.739426430539134 30.92990996868947 0.0
    vertex 4.414814565722549 33.85295238724369 0.0
    vertex 4.478612153434403 34.173684519449864 0.0
  endloop
endfacet
facet normal 0.0 0.0 -1.0
  outer loop
    vertex 4.739426430539134 30.92990996868947 0.0
    vertex 4.478612153434403 34.173684519449864 0.0
    vertex 4.499999999999876 34.499999999999986 0.0
  endloop
endfacet
facet normal 0.0 0.0 -1.0
  outer loop
    vertex 4.739426430539134 30.92990996868947 0.0
    vertex 4.499999999999876 34.499999999999986 0.0
    vertex 4.499999999999898 51.99999999999999 0.0
  endloop
endfacet
facet normal 0.0 0.0 -1.0
  outer loop
    vertex 4.739426430539134 30.92990996868947 0.0
    vertex 4.499999999999898 51.99999999999999 0.0
    vertex 6.499999999999898 49.99999999999999 0.0
  endloop
endfacet
facet normal 0.0 0.0 -1.0
  outer loop
    vertex 6.499999999999898 49.99999999999999 0.0
    vertex 4.499999999999898 51.99999999999999 0.0
    vertex 9.499999999999899 51.99999999999999 0.0
  endloop
endfacet
facet normal 0.0 0.0 -1.0
  outer loop
    vertex 4.739426430539134 30.92990996868947 0.0
    vertex 6.499999999999898 49.99999999999999 0.0
    vertex 5.181980515339422 31.31801948466056 0.0
  endloop
endfacet
facet normal 0.0 0.0 -1.0
  outer loop
    vertex 5.181980515339422 31.31801948466056 0.0
    vertex 6.499999999999898 49.99999999999999 0.0
    vertex 5.570090031310464 31.76057356946078 0.0
  endloop
endfacet
facet normal 0.0 0.0 -1.0
  outer loop
    vertex 5.570090031310464 31.76057356946078 0.0
    vertex 6.499999999999898 49.99999999999999 0.0
    vertex 5.897114317029856 32.25000000000002 0.0
  endloop
endfacet
facet normal 0.0 0.0 -1.0
  outer loop
    vertex 5.897114317029856 32.25000000000002 0.0
    vertex 6.499999999999898 49.99999999999999 0.0
    vertex 6.157457896300671 32.77792455435711 0.0
  endloop
endfacet
facet normal 0.0 0.0 -1.0
  outer loop
    vertex 6.157457896300671 32.77792455435711 0.0
    vertex 6.499999999999898 49.99999999999999 0.0
    vertex 6.346666218300645 33.335314297038664 0.0
  endloop
endfacet
facet normal 0.0 0.0 -1.0
  outer loop
    vertex 6.346666218300645 33.335314297038664 0.0
    vertex 6.499999999999898 49.99999999999999 0.0
    vertex 6.4615018761820355 33.912632135009765 0.0
  endloop
endfacet
facet normal 0.0 0.0 -1.0
  outer loop
    vertex 6.499999999999898 49.99999999999999 0.0
    vertex 9.499999999999899 51.99999999999999 0.0
    vertex 9.499999999999899 49.99999999999999 0.0
  endloop
endfacet
facet normal 0.0 0.0 -1.0
  outer loop
    vertex 6.499999999999898 34.499999999999986 0.0
    vertex 6.4615018761820355 33.912632135009765 0.0
    vertex 6.499999999999898 49.99999999999999 0.0
  endloop
endfacet
facet normal 0.0 0.0 -1.0
  outer loop
    vertex 219.5000000000001 51.99999999999999 0.0
    vertex 214.5000000000001 49.99999999999999 0.0
    vertex 214.5000000000001 51.99999999999999 0.0
  endloop
endfacet
facet normal 0.0 0.0 -1.0
  outer loop
    vertex 214.5000000000001 49.99999999999999 0.0
    vertex 219.5000000000001 51.99999999999999 0.0
    vertex 217.5000000000001 49.99999999999999 0.0
  endloop
endfacet
facet normal 0.0 0.0 -1.0
  outer loop
    vertex 217.5000000000001 49.99999999999999 0.0
    vertex 219.5000000000001 51.99999999999999 0.0
    vertex 217.5000000000001 34.499999999999986 0.0
  endloop
endfacet
facet normal 0.0 0.0 -1.0
  outer loop
    vertex 217.5000000000001 34.499999999999986 0.0
    vertex 219.5000000000001 51.99999999999999 0.0
    vertex 217.538498123818 33.912632135009765 0.0
  endloop
endfacet
facet normal 0.0 0.0 -1.0
  outer loop
    vertex 217.538498123818 33.912632135009765 0.0
    vertex 219.5000000000001 51.99999999999999 0.0
    vertex 217.65333378169933 33.335314297038664 0.0
  endloop
endfacet
facet normal 0.0 0.0 -1.0
  outer loop
    vertex 217.65333378169933 33.335314297038664 0.0
    vertex 219.5000000000001 51.99999999999999 0.0
    vertex 217.8425421036993 32.77792455435711 0.0
  endloop
endfacet
facet normal 0.0 0.0 -1.0
  outer loop
    vertex 217.8425421036993 32.77792455435711 0.0
    vertex 219.5000000000001 51.99999999999999 0.0
    vertex 218.1028856829701 32.25000000000002 0.0
  endloop
endfacet
facet normal 0.0 0.0 -1.0
  outer loop
    vertex 218.1028856829701 32.25000000000002 0.0
    vertex 219.5000000000001 51.99999999999999 0.0
    vertex 218.42990996868951 31.76057356946078 0.0
  endloop
endfacet
facet normal 0.0 0.0 -1.0
  outer loop
    vertex 218.42990996868951 31.76057356946078 0.0
    vertex 219.5000000000001 51.99999999999999 0.0
    vertex 218.8180194846606 31.31801948466056 0.0
  endloop
endfacet
facet normal 0.0 0.0 -1.0
  outer loop
    vertex 218.8180194846606 31.31801948466056 0.0
    vertex 219.5000000000001 51.99999999999999 0.0
    vertex 219.26057356946083 30.92990996868947 0.0
  endloop
endfacet
facet normal 0.0 0.0 -1.0
  outer loop
    vertex 219.26057356946083 30.92990996868947 0.0
    vertex 219.5000000000001 51.99999999999999 0.0
    vertex 219.5000000000001 34.499999999999986 0.0
  endloop
endfacet
facet normal 0.0 0.0 -1.0
  outer loop
    vertex 219.26057356946083 30.92990996868947 0.0
    vertex 219.5000000000001 34.499999999999986 0.0
    vertex 219.75000000000006 30.602885682970047 0.0
  endloop
endfacet
facet normal 0.0 0.0 -1.0
  outer loop
    vertex 219.75000000000006 30.602885682970047 0.0
    vertex 219.5000000000001 34.499999999999986 0.0
    vertex 219.52138784656563 34.173684519449864 0.0
  endloop
endfacet
facet normal 0.0 0.0 -1.0
  outer loop
    vertex 219.75000000000006 30.602885682970047 0.0
    vertex 219.52138784656563 34.173684519449864 0.0
    vertex 219.58518543427746 33.85295238724369 0.0
  endloop
endfacet
facet normal 0.0 0.0 -1.0
  outer loop
    vertex 219.75000000000006 30.602885682970047 0.0
    vertex 219.58518543427746 33.85295238724369 0.0
    vertex 219.6903011687219 33.54329141908728 0.0
  endloop
endfacet
facet normal 0.0 0.0 -1.0
  outer loop
    vertex 219.75000000000006 30.602885682970047 0.0
    vertex 219.6903011687219 33.54329141908728 0.0
    vertex 219.83493649053904 33.25000000000001 0.0
  endloop
endfacet
facet normal 0.0 0.0 -1.0
  outer loop
    vertex 219.75000000000006 30.602885682970047 0.0
    vertex 219.83493649053904 33.25000000000001 0.0
    vertex 220.27792455435716 30.342542103699223 0.0
  endloop
endfacet
facet normal 0.0 0.0 -1.0
  outer loop
    vertex 220.27792455435716 30.342542103699223 0.0
    vertex 219.83493649053904 33.25000000000001 0.0
    vertex 220.016616649272 32.97809642747821 0.0
  endloop
endfacet
facet normal 0.0 0.0 -1.0
  outer loop
    vertex 220.27792455435716 30.342542103699223 0.0
    vertex 220.016616649272 32.97809642747821 0.0
    vertex 220.23223304703373 32.732233047033645 0.0
  endloop
endfacet
facet normal 0.0 0.0 -1.0
  outer loop
    vertex 220.27792455435716 30.342542103699223 0.0
    vertex 220.23223304703373 32.732233047033645 0.0
    vertex 220.47809642747825 32.516616649271924 0.0
  endloop
endfacet
facet normal 0.0 0.0 -1.0
  outer loop
    vertex 220.27792455435716 30.342542103699223 0.0
    vertex 220.47809642747825 32.516616649271924 0.0
    vertex 220.83531429703868 30.153333781699196 0.0
  endloop
endfacet
facet normal 0.0 0.0 -1.0
  outer loop
    vertex 220.83531429703868 30.153333781699196 0.0
    vertex 220.47809642747825 32.516616649271924 0.0
    vertex 220.75000000000006 32.33493649053891 0.0
  endloop
endfacet
facet normal 0.0 0.0 -1.0
  outer loop
    vertex 220.83531429703868 30.153333781699196 0.0
    vertex 220.75000000000006 32.33493649053891 0.0
    vertex 221.04329141908732 32.19030116872179 0.0
  endloop
endfacet
facet normal 0.0 0.0 -1.0
  outer loop
    vertex 220.83531429703868 30.153333781699196 0.0
    vertex 221.04329141908732 32.19030116872179 0.0
    vertex 221.4126321350098 30.038498123817842 0.0
  endloop
endfacet
facet normal 0.0 0.0 -1.0
  outer loop
    vertex 221.4126321350098 30.038498123817842 0.0
    vertex 221.04329141908732 32.19030116872179 0.0
    vertex 221.35295238724376 32.08518543427732 0.0
  endloop
endfacet
facet normal 0.0 0.0 -1.0
  outer loop
    vertex 221.4126321350098 30.038498123817842 0.0
    vertex 221.35295238724376 32.08518543427732 0.0
    vertex 221.67368451944992 32.02138784656546 0.0
  endloop
endfacet
facet normal 0.0 0.0 -1.0
  outer loop
    vertex 221.4126321350098 30.038498123817842 0.0
    vertex 221.67368451944992 32.02138784656546 0.0
    vertex 222.0 29.99999999999999 0.0
  endloop
endfacet
facet normal 0.0 0.0 -1.0
  outer loop
    vertex 222.0 29.99999999999999 0.0
    vertex 221.67368451944992 32.02138784656546 0.0
    vertex 222.00000000000006 31.999999999999975 0.0
  endloop
endfacet
facet normal 0.0 0.0 -1.0
  outer loop
    vertex 222.0 29.99999999999999 0.0
    vertex 222.00000000000006 31.999999999999975 0.0
    vertex 224.0 29.99999999999999 0.0
  endloop
endfacet
facet normal 0.0 0.0 -1.0
  outer loop
    vertex 224.0 29.99999999999999 0.0
    vertex 222.00000000000006 31.999999999999975 0.0
    vertex 226.0 31.999999999999993 0.0
  endloop
endfacet
facet normal 0.0 0.0 -1.0
  outer loop
    vertex 224.0 29.99999999999999 0.0
    vertex 226.0 31.999999999999993 0.0
    vertex 224.0 0.0 0.0
  endloop
endfacet
facet normal 0.0 0.0 -1.0
  outer loop
    vertex -1.9999999999999998 -1.9999999999999998 0.0
    vertex 0.0 0.0 0.0
    vertex 226.0 -1.9999999999999998 0.0
  endloop
endfacet
facet normal 0.0 0.0 -1.0
  outer loop
    vertex 0.0 0.0 0.0
    vertex -1.9999999999999998 -1.9999999999999998 0.0
    vertex 0.0 29.99999999999999 0.0
  endloop
endfacet
facet normal 0.0 0.0 -1.0
  outer loop
    vertex 226.0 -1.9999999999999998 0.0
    vertex 0.0 0.0 0.0
    vertex 224.0 0.0 0.0
  endloop
endfacet
facet normal 0.0 0.0 -1.0
  outer loop
    vertex 226.0 -1.9999999999999998 0.0
    vertex 224.0 0.0 0.0
    vertex 226.0 31.999999999999993 0.0
  endloop
endfacet
facet normal 0.0006599857284110909 -0.003959914370466068 -0.9999919417160406
  outer loop
    vertex 92.99999958236442 51.99999999999999 5.996661775882663
    vertex 80.00000001795242 49.99999999999999 5.996001785123339
    vertex 80.00000001795242 51.99999999999999 5.980161999999989
  endloop
endfacet
facet normal 0.0006599857284110909 -0.003959914370466068 -0.9999919417160406
  outer loop
    vertex 80.00000001795242 49.99999999999999 5.996001785123339
    vertex 92.99999958236442 51.99999999999999 5.996661775882663
    vertex 92.99999958236442 49.99999999999999 5.996661775882663
  endloop
endfacet
facet normal 1.0 -2.248435803394978e-62 6.732829123814846e-32
  outer loop
    vertex 226.0 31.999999999999993 0.0
    vertex 226.0 -1.9999999999999998 23.0
    vertex 226.0 -1.9999999999999998 0.0
  endloop
endfacet
facet normal 1.0 -2.248435803394978e-62 6.732829123814846e-32
  outer loop
    vertex 226.0 -1.9999999999999998 23.0
    vertex 226.0 31.999999999999993 0.0
    vertex 226.0 31.999999999999993 23.0
  endloop
endfacet
facet normal -0.1950903220161529 0.9807852804032258 1.4661875723837706e-31
  outer loop
    vertex 2.326315480550061 32.02138784656545 23.0
    vertex 2.6470476127562277 32.08518543427732 0.0
    vertex 2.326315480550061 32.02138784656545 0.0
  endloop
endfacet
facet normal -0.1950903220161529 0.9807852804032258 1.4661875723837706e-31
  outer loop
    vertex 2.6470476127562277 32.08518543427732 0.0
    vertex 2.326315480550061 32.02138784656545 23.0
    vertex 2.6470476127562277 32.08518543427732 23.0
  endloop
endfacet
facet normal 0.44228869021900713 0.8968727415326856 1.7586441905045488e-31
  outer loop
    vertex 220.75000000000006 32.33493649053891 23.0
    vertex 221.04329141908732 32.19030116872179 0.0
    vertex 220.75000000000006 32.33493649053891 0.0
  endloop
endfacet
facet normal 0.44228869021900713 0.8968727415326856 1.7586441905045488e-31
  outer loop
    vertex 221.04329141908732 32.19030116872179 0.0
    vertex 220.75000000000006 32.33493649053891 23.0
    vertex 221.04329141908732 32.19030116872179 23.0
  endloop
endfacet
facet normal -0.32143946530318723 0.946930129495097 1.3259743584312517e-31
  outer loop
    vertex 2.6470476127562277 32.08518543427732 23.0
    vertex 2.956708580912643 32.19030116872178 0.0
    vertex 2.6470476127562277 32.08518543427732 0.0
  endloop
endfacet
facet normal -0.32143946530318723 0.946930129495097 1.3259743584312517e-31
  outer loop
    vertex 2.956708580912643 32.19030116872178 0.0
    vertex 2.6470476127562277 32.08518543427732 23.0
    vertex 2.956708580912643 32.19030116872178 23.0
  endloop
endfacet
facet normal -1.0 -1.1242179085439106e-62 -6.732829123814846e-32
  outer loop
    vertex -1.9999999999999998 31.999999999999993 23.0
    vertex -1.9999999999999998 -1.9999999999999998 0.0
    vertex -1.9999999999999998 -1.9999999999999998 23.0
  endloop
endfacet
facet normal -1.0 -1.1242179085439106e-62 -6.732829123814846e-32
  outer loop
    vertex -1.9999999999999998 -1.9999999999999998 0.0
    vertex -1.9999999999999998 31.999999999999993 23.0
    vertex -1.9999999999999998 31.999999999999993 0.0
  endloop
endfacet
facet normal 0.8314696123025744 0.5555702330195585 1.4647471799208406e-31
  outer loop
    vertex 219.83493649053904 33.25000000000001 0.0
    vertex 220.016616649272 32.97809642747821 23.0
    vertex 220.016616649272 32.97809642747821 0.0
  endloop
endfacet
facet normal 0.8314696123025744 0.5555702330195585 1.4647471799208406e-31
  outer loop
    vertex 220.016616649272 32.97809642747821 23.0
    vertex 219.83493649053904 33.25000000000001 0.0
    vertex 219.83493649053904 33.25000000000001 23.0
  endloop
endfacet
facet normal -0.06540312923016561 0.997858923238602 1.5813139104688093e-31
  outer loop
    vertex 1.9999999999999372 31.999999999999975 23.0
    vertex 2.326315480550061 32.02138784656545 0.0
    vertex 1.9999999999999372 31.999999999999975 0.0
  endloop
endfacet
facet normal -0.06540312923016561 0.997858923238602 1.5813139104688093e-31
  outer loop
    vertex 2.326315480550061 32.02138784656545 0.0
    vertex 1.9999999999999372 31.999999999999975 23.0
    vertex 2.326315480550061 32.02138784656545 23.0
  endloop
endfacet
facet normal 0.7518398074789672 0.6593458151000805 1.5801672160313853e-31
  outer loop
    vertex 220.016616649272 32.97809642747821 0.0
    vertex 220.23223304703373 32.732233047033645 23.0
    vertex 220.23223304703373 32.732233047033645 0.0
  endloop
endfacet
facet normal 0.7518398074789672 0.6593458151000805 1.5801672160313853e-31
  outer loop
    vertex 220.23223304703373 32.732233047033645 23.0
    vertex 220.016616649272 32.97809642747821 0.0
    vertex 220.016616649272 32.97809642747821 23.0
  endloop
endfacet
facet normal -7.157258725204073e-64 -1.0 -1.6288361830955078e-31
  outer loop
    vertex 226.0 -1.9999999999999998 23.0
    vertex -1.9999999999999998 -1.9999999999999998 0.0
    vertex 226.0 -1.9999999999999998 0.0
  endloop
endfacet
facet normal -7.157258725204073e-64 -1.0 -1.6288361830955078e-31
  outer loop
    vertex -1.9999999999999998 -1.9999999999999998 0.0
    vertex 226.0 -1.9999999999999998 23.0
    vertex -1.9999999999999998 -1.9999999999999998 23.0
  endloop
endfacet
facet normal 0.19509032201614504 0.9807852804032272 1.7288895327527218e-31
  outer loop
    vertex 221.35295238724376 32.08518543427732 23.0
    vertex 221.67368451944992 32.02138784656546 0.0
    vertex 221.35295238724376 32.08518543427732 0.0
  endloop
endfacet
facet normal 0.19509032201614504 0.9807852804032272 1.7288895327527218e-31
  outer loop
    vertex 221.67368451944992 32.02138784656546 0.0
    vertex 221.35295238724376 32.08518543427732 23.0
    vertex 221.67368451944992 32.02138784656546 23.0
  endloop
endfacet
facet normal -0.44228869021901995 0.8968727415326793 1.163073355576439e-31
  outer loop
    vertex 2.956708580912643 32.19030116872178 23.0
    vertex 3.2499999999999116 32.3349364905389 0.0
    vertex 2.956708580912643 32.19030116872178 0.0
  endloop
endfacet
facet normal -0.44228869021901995 0.8968727415326793 1.163073355576439e-31
  outer loop
    vertex 3.2499999999999116 32.3349364905389 0.0
    vertex 2.956708580912643 32.19030116872178 23.0
    vertex 3.2499999999999116 32.3349364905389 23.0
  endloop
endfacet
facet normal 0.06540312923018561 0.9978589232386007 1.6693835291227178e-31
  outer loop
    vertex 221.67368451944992 32.02138784656546 23.0
    vertex 222.00000000000006 31.999999999999975 0.0
    vertex 221.67368451944992 32.02138784656546 0.0
  endloop
endfacet
facet normal 0.06540312923018561 0.9978589232386007 1.6693835291227178e-31
  outer loop
    vertex 222.00000000000006 31.999999999999975 0.0
    vertex 221.67368451944992 32.02138784656546 23.0
    vertex 222.00000000000006 31.999999999999975 23.0
  endloop
endfacet
facet normal 0.8968727415326821 0.4422886902190139 1.3242649134573407e-31
  outer loop
    vertex 219.6903011687219 33.54329141908728 0.0
    vertex 219.83493649053904 33.25000000000001 23.0
    vertex 219.83493649053904 33.25000000000001 0.0
  endloop
endfacet
facet normal 0.8968727415326821 0.4422886902190139 1.3242649134573407e-31
  outer loop
    vertex 219.83493649053904 33.25000000000001 23.0
    vertex 219.6903011687219 33.54329141908728 0.0
    vertex 219.6903011687219 33.54329141908728 23.0
  endloop
endfacet
facet normal 0.6593458151001648 0.7518398074788932 1.6685501529703647e-31
  outer loop
    vertex 220.23223304703373 32.732233047033645 23.0
    vertex 220.47809642747825 32.516616649271924 0.0
    vertex 220.23223304703373 32.732233047033645 0.0
  endloop
endfacet
facet normal 0.6593458151001648 0.7518398074788932 1.6685501529703647e-31
  outer loop
    vertex 220.47809642747825 32.516616649271924 0.0
    vertex 220.23223304703373 32.732233047033645 23.0
    vertex 220.47809642747825 32.516616649271924 23.0
  endloop
endfacet
facet normal 4.229949723821913e-15 1.0 1.6288361830955107e-31
  outer loop
    vertex -1.9999999999999998 31.999999999999993 23.0
    vertex 1.9999999999999372 31.999999999999975 0.0
    vertex -1.9999999999999998 31.999999999999993 0.0
  endloop
endfacet
facet normal 4.229949723821913e-15 1.0 1.6288361830955107e-31
  outer loop
    vertex 1.9999999999999372 31.999999999999975 0.0
    vertex -1.9999999999999998 31.999999999999993 23.0
    vertex 1.9999999999999372 31.999999999999975 23.0
  endloop
endfacet
facet normal -4.229949723821902e-15 1.0 1.628836183095505e-31
  outer loop
    vertex 222.00000000000006 31.999999999999975 23.0
    vertex 226.0 31.999999999999993 0.0
    vertex 222.00000000000006 31.999999999999975 0.0
  endloop
endfacet
facet normal -4.229949723821902e-15 1.0 1.628836183095505e-31
  outer loop
    vertex 226.0 31.999999999999993 0.0
    vertex 222.00000000000006 31.999999999999975 23.0
    vertex 226.0 31.999999999999993 23.0
  endloop
endfacet
facet normal 0.5555702330195942 0.8314696123025506 1.7283837341826805e-31
  outer loop
    vertex 220.47809642747825 32.516616649271924 23.0
    vertex 220.75000000000006 32.33493649053891 0.0
    vertex 220.47809642747825 32.516616649271924 0.0
  endloop
endfacet
facet normal 0.5555702330195942 0.8314696123025506 1.7283837341826805e-31
  outer loop
    vertex 220.75000000000006 32.33493649053891 0.0
    vertex 220.47809642747825 32.516616649271924 23.0
    vertex 220.75000000000006 32.33493649053891 23.0
  endloop
endfacet
facet normal 0.32143946530318523 0.9469301294950977 1.7588137571386056e-31
  outer loop
    vertex 221.04329141908732 32.19030116872179 23.0
    vertex 221.35295238724376 32.08518543427732 0.0
    vertex 221.04329141908732 32.19030116872179 0.0
  endloop
endfacet
facet normal 0.32143946530318523 0.9469301294950977 1.7588137571386056e-31
  outer loop
    vertex 221.35295238724376 32.08518543427732 0.0
    vertex 221.04329141908732 32.19030116872179 23.0
    vertex 221.35295238724376 32.08518543427732 23.0
  endloop
endfacet
facet normal -1.0 0.0 0.0
  outer loop
    vertex 21.499999999999897 51.99999999999999 5.9897059999999955
    vertex 21.499999999999897 49.99999999999999 0.0
    vertex 21.499999999999897 49.99999999999999 5.9897059999999955
  endloop
endfacet
facet normal -1.0 0.0 0.0
  outer loop
    vertex 21.499999999999897 49.99999999999999 0.0
    vertex 21.499999999999897 51.99999999999999 5.9897059999999955
    vertex 21.499999999999897 51.99999999999999 0.0
  endloop
endfacet
facet normal -6.732829123814846e-32 -1.6288361830955078e-31 1.0
  outer loop
    vertex 217.538498123818 33.912632135009765 23.0
    vertex 217.5000000000001 49.99999999999999 23.0
    vertex 217.5000000000001 34.499999999999986 23.0
  endloop
endfacet
facet normal -6.732829123814846e-32 -1.6288361830955078e-31 1.0
  outer loop
    vertex -1.9999999999999998 -1.9999999999999998 23.0
    vertex 0.0 0.0 23.0
    vertex -1.9999999999999998 31.999999999999993 23.0
  endloop
endfacet
facet normal -6.732829123814846e-32 -1.6288361830955078e-31 1.0
  outer loop
    vertex 0.0 0.0 23.0
    vertex -1.9999999999999998 -1.9999999999999998 23.0
    vertex 226.0 -1.9999999999999998 23.0
  endloop
endfacet
facet normal -6.732829123814846e-32 -1.6288361830955078e-31 1.0
  outer loop
    vertex 0.0 0.0 23.0
    vertex 226.0 -1.9999999999999998 23.0
    vertex 224.0 0.0 23.0
  endloop
endfacet
facet normal -6.732829123814846e-32 -1.6288361830955078e-31 1.0
  outer loop
    vertex 224.0 0.0 23.0
    vertex 226.0 -1.9999999999999998 23.0
    vertex 224.0 29.99999999999999 23.0
  endloop
endfacet
facet normal -6.732829123814846e-32 -1.6288361830955078e-31 1.0
  outer loop
    vertex 219.75000000000006 30.602885682970047 23.0
    vertex 219.5000000000001 34.499999999999986 23.0
    vertex 219.26057356946083 30.92990996868947 23.0
  endloop
endfacet
facet normal -6.732829123814846e-32 -1.6288361830955078e-31 1.0
  outer loop
    vertex 219.5000000000001 34.499999999999986 23.0
    vertex 219.75000000000006 30.602885682970047 23.0
    vertex 219.52138784656563 34.173684519449864 23.0
  endloop
endfacet
facet normal -6.732829123814846e-32 -1.6288361830955078e-31 1.0
  outer loop
    vertex 219.52138784656563 34.173684519449864 23.0
    vertex 219.75000000000006 30.602885682970047 23.0
    vertex 219.58518543427746 33.85295238724369 23.0
  endloop
endfacet
facet normal -6.732829123814846e-32 -1.6288361830955078e-31 1.0
  outer loop
    vertex 219.58518543427746 33.85295238724369 23.0
    vertex 219.75000000000006 30.602885682970047 23.0
    vertex 219.6903011687219 33.54329141908728 23.0
  endloop
endfacet
facet normal -6.732829123814846e-32 -1.6288361830955078e-31 1.0
  outer loop
    vertex 219.6903011687219 33.54329141908728 23.0
    vertex 219.75000000000006 30.602885682970047 23.0
    vertex 219.83493649053904 33.25000000000001 23.0
  endloop
endfacet
facet normal -6.732829123814846e-32 -1.6288361830955078e-31 1.0
  outer loop
    vertex 219.83493649053904 33.25000000000001 23.0
    vertex 219.75000000000006 30.602885682970047 23.0
    vertex 220.27792455435716 30.342542103699223 23.0
  endloop
endfacet
facet normal -6.732829123814846e-32 -1.6288361830955078e-31 1.0
  outer loop
    vertex 219.83493649053904 33.25000000000001 23.0
    vertex 220.27792455435716 30.342542103699223 23.0
    vertex 220.016616649272 32.97809642747821 23.0
  endloop
endfacet
facet normal -6.732829123814846e-32 -1.6288361830955078e-31 1.0
  outer loop
    vertex 220.016616649272 32.97809642747821 23.0
    vertex 220.27792455435716 30.342542103699223 23.0
    vertex 220.23223304703373 32.732233047033645 23.0
  endloop
endfacet
facet normal -6.732829123814846e-32 -1.6288361830955078e-31 1.0
  outer loop
    vertex 220.23223304703373 32.732233047033645 23.0
    vertex 220.27792455435716 30.342542103699223 23.0
    vertex 220.47809642747825 32.516616649271924 23.0
  endloop
endfacet
facet normal -6.732829123814846e-32 -1.6288361830955078e-31 1.0
  outer loop
    vertex 220.47809642747825 32.516616649271924 23.0
    vertex 220.27792455435716 30.342542103699223 23.0
    vertex 220.83531429703868 30.153333781699196 23.0
  endloop
endfacet
facet normal -6.732829123814846e-32 -1.6288361830955078e-31 1.0
  outer loop
    vertex 220.47809642747825 32.516616649271924 23.0
    vertex 220.83531429703868 30.153333781699196 23.0
    vertex 220.75000000000006 32.33493649053891 23.0
  endloop
endfacet
facet normal -6.732829123814846e-32 -1.6288361830955078e-31 1.0
  outer loop
    vertex 220.75000000000006 32.33493649053891 23.0
    vertex 220.83531429703868 30.153333781699196 23.0
    vertex 221.04329141908732 32.19030116872179 23.0
  endloop
endfacet
facet normal -6.732829123814846e-32 -1.6288361830955078e-31 1.0
  outer loop
    vertex 221.04329141908732 32.19030116872179 23.0
    vertex 220.83531429703868 30.153333781699196 23.0
    vertex 221.4126321350098 30.038498123817842 23.0
  endloop
endfacet
facet normal -6.732829123814846e-32 -1.6288361830955078e-31 1.0
  outer loop
    vertex 221.04329141908732 32.19030116872179 23.0
    vertex 221.4126321350098 30.038498123817842 23.0
    vertex 221.35295238724376 32.08518543427732 23.0
  endloop
endfacet
facet normal -6.732829123814846e-32 -1.6288361830955078e-31 1.0
  outer loop
    vertex 221.35295238724376 32.08518543427732 23.0
    vertex 221.4126321350098 30.038498123817842 23.0
    vertex 221.67368451944992 32.02138784656546 23.0
  endloop
endfacet
facet normal -6.732829123814846e-32 -1.6288361830955078e-31 1.0
  outer loop
    vertex 221.67368451944992 32.02138784656546 23.0
    vertex 221.4126321350098 30.038498123817842 23.0
    vertex 222.0 29.99999999999999 23.0
  endloop
endfacet
facet normal -6.732829123814846e-32 -1.6288361830955078e-31 1.0
  outer loop
    vertex 221.67368451944992 32.02138784656546 23.0
    vertex 222.0 29.99999999999999 23.0
    vertex 222.00000000000006 31.999999999999975 23.0
  endloop
endfacet
facet normal -6.732829123814846e-32 -1.6288361830955078e-31 1.0
  outer loop
    vertex 222.00000000000006 31.999999999999975 23.0
    vertex 222.0 29.99999999999999 23.0
    vertex 224.0 29.99999999999999 23.0
  endloop
endfacet
facet normal -6.732829123814846e-32 -1.6288361830955078e-31 1.0
  outer loop
    vertex 222.00000000000006 31.999999999999975 23.0
    vertex 224.0 29.99999999999999 23.0
    vertex 226.0 31.999999999999993 23.0
  endloop
endfacet
facet normal -6.732829123814846e-32 -1.6288361830955078e-31 1.0
  outer loop
    vertex 226.0 31.999999999999993 23.0
    vertex 224.0 29.99999999999999 23.0
    vertex 226.0 -1.9999999999999998 23.0
  endloop
endfacet
facet normal -6.732829123814846e-32 -1.6288361830955078e-31 1.0
  outer loop
    vertex -1.9999999999999998 31.999999999999993 23.0
    vertex 0.0 29.99999999999999 23.0
    vertex 1.9999999999999372 31.999999999999975 23.0
  endloop
endfacet
facet normal -6.732829123814846e-32 -1.6288361830955078e-31 1.0
  outer loop
    vertex 0.0 29.99999999999999 23.0
    vertex -1.9999999999999998 31.999999999999993 23.0
    vertex 0.0 0.0 23.0
  endloop
endfacet
facet normal -6.732829123814846e-32 -1.6288361830955078e-31 1.0
  outer loop
    vertex 1.9999999999999372 31.999999999999975 23.0
    vertex 0.0 29.99999999999999 23.0
    vertex 1.9999999999999962 29.99999999999999 23.0
  endloop
endfacet
facet normal -6.732829123814846e-32 -1.6288361830955078e-31 1.0
  outer loop
    vertex 1.9999999999999372 31.999999999999975 23.0
    vertex 1.9999999999999962 29.99999999999999 23.0
    vertex 2.326315480550061 32.02138784656545 23.0
  endloop
endfacet
facet normal -6.732829123814846e-32 -1.6288361830955078e-31 1.0
  outer loop
    vertex 2.326315480550061 32.02138784656545 23.0
    vertex 1.9999999999999962 29.99999999999999 23.0
    vertex 2.587367864990203 30.038498123817842 23.0
  endloop
endfacet
facet normal -6.732829123814846e-32 -1.6288361830955078e-31 1.0
  outer loop
    vertex 2.326315480550061 32.02138784656545 23.0
    vertex 2.587367864990203 30.038498123817842 23.0
    vertex 2.6470476127562277 32.08518543427732 23.0
  endloop
endfacet
facet normal -6.732829123814846e-32 -1.6288361830955078e-31 1.0
  outer loop
    vertex 2.6470476127562277 32.08518543427732 23.0
    vertex 2.587367864990203 30.038498123817842 23.0
    vertex 3.164685702961309 30.153333781699196 23.0
  endloop
endfacet
facet normal -6.732829123814846e-32 -1.6288361830955078e-31 1.0
  outer loop
    vertex 2.6470476127562277 32.08518543427732 23.0
    vertex 3.164685702961309 30.153333781699196 23.0
    vertex 2.956708580912643 32.19030116872178 23.0
  endloop
endfacet
facet normal -6.732829123814846e-32 -1.6288361830955078e-31 1.0
  outer loop
    vertex 2.956708580912643 32.19030116872178 23.0
    vertex 3.164685702961309 30.153333781699196 23.0
    vertex 3.2499999999999116 32.3349364905389 23.0
  endloop
endfacet
facet normal -6.732829123814846e-32 -1.6288361830955078e-31 1.0
  outer loop
    vertex 3.2499999999999116 32.3349364905389 23.0
    vertex 3.164685702961309 30.153333781699196 23.0
    vertex 3.722075445642829 30.342542103699223 23.0
  endloop
endfacet
facet normal -6.732829123814846e-32 -1.6288361830955078e-31 1.0
  outer loop
    vertex 3.2499999999999116 32.3349364905389 23.0
    vertex 3.722075445642829 30.342542103699223 23.0
    vertex 3.521903572521706 32.51661664927192 23.0
  endloop
endfacet
facet normal -6.732829123814846e-32 -1.6288361830955078e-31 1.0
  outer loop
    vertex 3.521903572521706 32.51661664927192 23.0
    vertex 3.722075445642829 30.342542103699223 23.0
    vertex 3.7677669529662667 32.73223304703364 23.0
  endloop
endfacet
facet normal -6.732829123814846e-32 -1.6288361830955078e-31 1.0
  outer loop
    vertex 3.7677669529662667 32.73223304703364 23.0
    vertex 3.722075445642829 30.342542103699223 23.0
    vertex 4.249999999999958 30.602885682970047 23.0
  endloop
endfacet
facet normal -6.732829123814846e-32 -1.6288361830955078e-31 1.0
  outer loop
    vertex 3.7677669529662667 32.73223304703364 23.0
    vertex 4.249999999999958 30.602885682970047 23.0
    vertex 3.98338335072798 32.97809642747821 23.0
  endloop
endfacet
facet normal -6.732829123814846e-32 -1.6288361830955078e-31 1.0
  outer loop
    vertex 3.98338335072798 32.97809642747821 23.0
    vertex 4.249999999999958 30.602885682970047 23.0
    vertex 4.165063509460983 33.25 23.0
  endloop
endfacet
facet normal -6.732829123814846e-32 -1.6288361830955078e-31 1.0
  outer loop
    vertex 4.165063509460983 33.25 23.0
    vertex 4.249999999999958 30.602885682970047 23.0
    vertex 4.309698831278099 33.543291419087275 23.0
  endloop
endfacet
facet normal -6.732829123814846e-32 -1.6288361830955078e-31 1.0
  outer loop
    vertex 4.309698831278099 33.543291419087275 23.0
    vertex 4.249999999999958 30.602885682970047 23.0
    vertex 4.739426430539134 30.92990996868947 23.0
  endloop
endfacet
facet normal -6.732829123814846e-32 -1.6288361830955078e-31 1.0
  outer loop
    vertex 4.309698831278099 33.543291419087275 23.0
    vertex 4.739426430539134 30.92990996868947 23.0
    vertex 4.414814565722549 33.85295238724369 23.0
  endloop
endfacet
facet normal -6.732829123814846e-32 -1.6288361830955078e-31 1.0
  outer loop
    vertex 4.414814565722549 33.85295238724369 23.0
    vertex 4.739426430539134 30.92990996868947 23.0
    vertex 4.478612153434403 34.173684519449864 23.0
  endloop
endfacet
facet normal -6.732829123814846e-32 -1.6288361830955078e-31 1.0
  outer loop
    vertex 4.478612153434403 34.173684519449864 23.0
    vertex 4.739426430539134 30.92990996868947 23.0
    vertex 4.499999999999876 34.499999999999986 23.0
  endloop
endfacet
facet normal -6.732829123814846e-32 -1.6288361830955078e-31 1.0
  outer loop
    vertex 4.499999999999876 34.499999999999986 23.0
    vertex 4.739426430539134 30.92990996868947 23.0
    vertex 4.499999999999898 51.99999999999999 23.0
  endloop
endfacet
facet normal -6.732829123814846e-32 -1.6288361830955078e-31 1.0
  outer loop
    vertex 4.499999999999898 51.99999999999999 23.0
    vertex 4.739426430539134 30.92990996868947 23.0
    vertex 6.499999999999898 49.99999999999999 23.0
  endloop
endfacet
facet normal -6.732829123814846e-32 -1.6288361830955078e-31 1.0
  outer loop
    vertex 4.499999999999898 51.99999999999999 23.0
    vertex 6.499999999999898 49.99999999999999 23.0
    vertex 219.5000000000001 51.99999999999999 23.0
  endloop
endfacet
facet normal -6.732829123814846e-32 -1.6288361830955078e-31 1.0
  outer loop
    vertex 6.499999999999898 49.99999999999999 23.0
    vertex 4.739426430539134 30.92990996868947 23.0
    vertex 5.181980515339422 31.31801948466056 23.0
  endloop
endfacet
facet normal -6.732829123814846e-32 -1.6288361830955078e-31 1.0
  outer loop
    vertex 6.499999999999898 49.99999999999999 23.0
    vertex 5.181980515339422 31.31801948466056 23.0
    vertex 5.570090031310464 31.76057356946078 23.0
  endloop
endfacet
facet normal -6.732829123814846e-32 -1.6288361830955078e-31 1.0
  outer loop
    vertex 6.499999999999898 49.99999999999999 23.0
    vertex 5.570090031310464 31.76057356946078 23.0
    vertex 5.897114317029856 32.25000000000002 23.0
  endloop
endfacet
facet normal -6.732829123814846e-32 -1.6288361830955078e-31 1.0
  outer loop
    vertex 6.499999999999898 49.99999999999999 23.0
    vertex 5.897114317029856 32.25000000000002 23.0
    vertex 6.157457896300671 32.77792455435711 23.0
  endloop
endfacet
facet normal -6.732829123814846e-32 -1.6288361830955078e-31 1.0
  outer loop
    vertex 6.499999999999898 49.99999999999999 23.0
    vertex 6.157457896300671 32.77792455435711 23.0
    vertex 6.346666218300645 33.335314297038664 23.0
  endloop
endfacet
facet normal -6.732829123814846e-32 -1.6288361830955078e-31 1.0
  outer loop
    vertex 6.499999999999898 49.99999999999999 23.0
    vertex 6.346666218300645 33.335314297038664 23.0
    vertex 6.4615018761820355 33.912632135009765 23.0
  endloop
endfacet
facet normal -6.732829123814846e-32 -1.6288361830955078e-31 1.0
  outer loop
    vertex 6.499999999999898 49.99999999999999 23.0
    vertex 6.4615018761820355 33.912632135009765 23.0
    vertex 6.499999999999898 34.499999999999986 23.0
  endloop
endfacet
facet normal -6.732829123814846e-32 -1.6288361830955078e-31 1.0
  outer loop
    vertex 219.5000000000001 51.99999999999999 23.0
    vertex 6.499999999999898 49.99999999999999 23.0
    vertex 217.5000000000001 49.99999999999999 23.0
  endloop
endfacet
facet normal -6.732829123814846e-32 -1.6288361830955078e-31 1.0
  outer loop
    vertex 219.5000000000001 51.99999999999999 23.0
    vertex 217.5000000000001 49.99999999999999 23.0
    vertex 217.538498123818 33.912632135009765 23.0
  endloop
endfacet
facet normal -6.732829123814846e-32 -1.6288361830955078e-31 1.0
  outer loop
    vertex 219.5000000000001 51.99999999999999 23.0
    vertex 217.538498123818 33.912632135009765 23.0
    vertex 217.65333378169933 33.335314297038664 23.0
  endloop
endfacet
facet normal -6.732829123814846e-32 -1.6288361830955078e-31 1.0
  outer loop
    vertex 219.5000000000001 51.99999999999999 23.0
    vertex 217.65333378169933 33.335314297038664 23.0
    vertex 217.8425421036993 32.77792455435711 23.0
  endloop
endfacet
facet normal -6.732829123814846e-32 -1.6288361830955078e-31 1.0
  outer loop
    vertex 219.5000000000001 51.99999999999999 23.0
    vertex 217.8425421036993 32.77792455435711 23.0
    vertex 218.1028856829701 32.25000000000002 23.0
  endloop
endfacet
facet normal -6.732829123814846e-32 -1.6288361830955078e-31 1.0
  outer loop
    vertex 219.5000000000001 51.99999999999999 23.0
    vertex 218.1028856829701 32.25000000000002 23.0
    vertex 218.42990996868951 31.76057356946078 23.0
  endloop
endfacet
facet normal -6.732829123814846e-32 -1.6288361830955078e-31 1.0
  outer loop
    vertex 219.5000000000001 51.99999999999999 23.0
    vertex 218.42990996868951 31.76057356946078 23.0
    vertex 218.8180194846606 31.31801948466056 23.0
  endloop
endfacet
facet normal -6.732829123814846e-32 -1.6288361830955078e-31 1.0
  outer loop
    vertex 219.5000000000001 51.99999999999999 23.0
    vertex 218.8180194846606 31.31801948466056 23.0
    vertex 219.26057356946083 30.92990996868947 23.0
  endloop
endfacet
facet normal -6.732829123814846e-32 -1.6288361830955078e-31 1.0
  outer loop
    vertex 219.5000000000001 51.99999999999999 23.0
    vertex 219.26057356946083 30.92990996868947 23.0
    vertex 219.5000000000001 34.499999999999986 23.0
  endloop
endfacet
facet normal 4.820455524243598e-17 0.0 -1.0
  outer loop
    vertex 80.00000001795242 51.99999999999999 2.8199664825478975e-15
    vertex 21.499999999999897 49.99999999999999 0.0
    vertex 21.499999999999897 51.99999999999999 0.0
  endloop
endfacet
facet normal 4.820455524243598e-17 0.0 -1.0
  outer loop
    vertex 21.499999999999897 49.99999999999999 0.0
    vertex 80.00000001795242 51.99999999999999 2.8199664825478975e-15
    vertex 80.00000001795242 49.99999999999999 2.8199664825478975e-15
  endloop
endfacet
facet normal -1.0 0.0 0.0
  outer loop
    vertex 92.99999958236442 51.99999999999999 5.996661775882663
    vertex 92.99999958236442 49.99999999999999 0.0006599907593259679
    vertex 92.99999958236442 49.99999999999999 5.996661775882663
  endloop
endfacet
facet normal -1.0 0.0 0.0
  outer loop
    vertex 92.99999958236442 49.99999999999999 0.0006599907593259679
    vertex 92.99999958236442 51.99999999999999 5.996661775882663
    vertex 92.99999958236442 51.99999999999999 0.0006599907593259679
  endloop
endfacet
facet normal 1.0 0.0 0.0
  outer loop
    vertex 202.50000000000014 51.99999999999999 0.0
    vertex 202.50000000000014 49.99999999999999 5.998099000000006
    vertex 202.50000000000014 49.99999999999999 0.0
  endloop
endfacet
facet normal 1.0 0.0 0.0
  outer loop
    vertex 202.50000000000014 49.99999999999999 5.998099000000006
    vertex 202.50000000000014 51.99999999999999 0.0
    vertex 202.50000000000014 51.99999999999999 5.998099000000006
  endloop
endfacet
facet normal 1.0 0.0 0.0
  outer loop
    vertex 9.499999999999899 51.99999999999999 0.0
    vertex 9.499999999999899 49.99999999999999 5.9897059999999955
    vertex 9.499999999999899 49.99999999999999 0.0
  endloop
endfacet
facet normal 1.0 0.0 0.0
  outer loop
    vertex 9.499999999999899 49.99999999999999 5.9897059999999955
    vertex 9.499999999999899 51.99999999999999 0.0
    vertex 9.499999999999899 51.99999999999999 5.9897059999999955
  endloop
endfacet
facet normal 0.0 0.0 -1.0
  outer loop
    vertex 21.499999999999897 51.99999999999999 5.9897059999999955
    vertex 9.499999999999899 49.99999999999999 5.9897059999999955
    vertex 9.499999999999899 51.99999999999999 5.9897059999999955
  endloop
endfacet
facet normal 0.0 0.0 -1.0
  outer loop
    vertex 9.499999999999899 49.99999999999999 5.9897059999999955
    vertex 21.499999999999897 51.99999999999999 5.9897059999999955
    vertex 21.499999999999897 49.99999999999999 5.9897059999999955
  endloop
endfacet
facet normal 0.9469301294951012 0.321439465303175 1.1611241071689226e-31
  outer loop
    vertex 219.58518543427746 33.85295238724369 0.0
    vertex 219.6903011687219 33.54329141908728 23.0
    vertex 219.6903011687219 33.54329141908728 0.0
  endloop
endfacet
facet normal 0.9469301294951012 0.321439465303175 1.1611241071689226e-31
  outer loop
    vertex 219.6903011687219 33.54329141908728 23.0
    vertex 219.58518543427746 33.85295238724369 0.0
    vertex 219.58518543427746 33.85295238724369 23.0
  endloop
endfacet
facet normal -1.0 1.2488422994140684e-15 -6.732829123814825e-32
  outer loop
    vertex 4.499999999999898 51.99999999999999 23.0
    vertex 4.499999999999876 34.499999999999986 0.0
    vertex 4.499999999999876 34.499999999999986 23.0
  endloop
endfacet
facet normal -1.0 1.2488422994140684e-15 -6.732829123814825e-32
  outer loop
    vertex 4.499999999999876 34.499999999999986 0.0
    vertex 4.499999999999898 51.99999999999999 23.0
    vertex 4.499999999999898 51.99999999999999 0.0
  endloop
endfacet
facet normal 1.0 0.0 0.0
  outer loop
    vertex 80.00000001795242 51.99999999999999 2.8199664825478975e-15
    vertex 80.00000001795242 49.99999999999999 5.996001785123339
    vertex 80.00000001795242 49.99999999999999 2.8199664825478975e-15
  endloop
endfacet
facet normal 1.0 0.0 0.0
  outer loop
    vertex 80.00000001795242 49.99999999999999 5.996001785123339
    vertex 80.00000001795242 51.99999999999999 2.8199664825478975e-15
    vertex 80.00000001795242 51.99999999999999 5.980161999999989
  endloop
endfacet
facet normal 0.0 0.0 -1.0
  outer loop
    vertex 214.5000000000001 51.99999999999999 5.998099000000006
    vertex 202.50000000000014 49.99999999999999 5.998099000000006
    vertex 202.50000000000014 51.99999999999999 5.998099000000006
  endloop
endfacet
facet normal 0.0 0.0 -1.0
  outer loop
    vertex 202.50000000000014 49.99999999999999 5.998099000000006
    vertex 214.5000000000001 51.99999999999999 5.998099000000006
    vertex 214.5000000000001 49.99999999999999 5.998099000000006
  endloop
endfacet
facet normal -1.0 0.0 0.0
  outer loop
    vertex 214.5000000000001 51.99999999999999 5.998099000000006
    vertex 214.5000000000001 49.99999999999999 0.0
    vertex 214.5000000000001 49.99999999999999 5.998099000000006
  endloop
endfacet
facet normal -1.0 0.0 0.0
  outer loop
    vertex 214.5000000000001 49.99999999999999 0.0
    vertex 214.5000000000001 51.99999999999999 5.998099000000006
    vertex 214.5000000000001 51.99999999999999 0.0
  endloop
endfacet
endsolid E46 radio bracket
