solid Untitled-6550caf8
facet normal 0.0 0.0 -1.0
  outer loop
    vertex 0.0 228.0 0.0
    vertex 3.0 224.50000000000003 0.0
    vertex 0.0 0.0 0.0
  endloop
endfacet
facet normal 0.0 0.0 -1.0
  outer loop
    vertex 3.0 224.50000000000003 0.0
    vertex 0.0 228.0 0.0
    vertex 50.0 228.0 0.0
  endloop
endfacet
facet normal 0.0 0.0 -1.0
  outer loop
    vertex 3.0 224.50000000000003 0.0
    vertex 50.0 228.0 0.0
    vertex 47.00000000000001 224.50000000000003 0.0
  endloop
endfacet
facet normal 0.0 0.0 -1.0
  outer loop
    vertex 0.0 0.0 0.0
    vertex 3.0 3.5 0.0
    vertex 50.0 0.0 0.0
  endloop
endfacet
facet normal 0.0 0.0 -1.0
  outer loop
    vertex 3.0 3.5 0.0
    vertex 0.0 0.0 0.0
    vertex 3.0 224.50000000000003 0.0
  endloop
endfacet
facet normal 0.0 0.0 -1.0
  outer loop
    vertex 50.0 0.0 0.0
    vertex 3.0 3.5 0.0
    vertex 47.00000000000001 3.5 0.0
  endloop
endfacet
facet normal 0.0 0.0 -1.0
  outer loop
    vertex 50.0 0.0 0.0
    vertex 47.00000000000001 3.5 0.0
    vertex 47.00000000000001 224.50000000000003 0.0
  endloop
endfacet
facet normal 0.0 0.0 -1.0
  outer loop
    vertex 50.0 0.0 0.0
    vertex 47.00000000000001 224.50000000000003 0.0
    vertex 50.0 228.0 0.0
  endloop
endfacet
facet normal -0.0 -0.0 1.0
  outer loop
    vertex 0.0 0.0 0.9999999999999999
    vertex 3.0 3.5 0.9999999999999999
    vertex 0.0 228.0 0.9999999999999999
  endloop
endfacet
facet normal -0.0 -0.0 1.0
  outer loop
    vertex 3.0 3.5 0.9999999999999999
    vertex 0.0 0.0 0.9999999999999999
    vertex 50.0 0.0 0.9999999999999999
  endloop
endfacet
facet normal -0.0 -0.0 1.0
  outer loop
    vertex 3.0 3.5 0.9999999999999999
    vertex 50.0 0.0 0.9999999999999999
    vertex 47.00000000000001 3.5 0.9999999999999999
  endloop
endfacet
facet normal -0.0 -0.0 1.0
  outer loop
    vertex 47.00000000000001 3.5 0.9999999999999999
    vertex 50.0 0.0 0.9999999999999999
    vertex 47.00000000000001 224.50000000000003 0.9999999999999999
  endloop
endfacet
facet normal -0.0 -0.0 1.0
  outer loop
    vertex 0.0 228.0 0.9999999999999999
    vertex 3.0 224.50000000000003 0.9999999999999999
    vertex 50.0 228.0 0.9999999999999999
  endloop
endfacet
facet normal -0.0 -0.0 1.0
  outer loop
    vertex 3.0 224.50000000000003 0.9999999999999999
    vertex 0.0 228.0 0.9999999999999999
    vertex 3.0 3.5 0.9999999999999999
  endloop
endfacet
facet normal -0.0 -0.0 1.0
  outer loop
    vertex 50.0 228.0 0.9999999999999999
    vertex 3.0 224.50000000000003 0.9999999999999999
    vertex 47.00000000000001 224.50000000000003 0.9999999999999999
  endloop
endfacet
facet normal -0.0 -0.0 1.0
  outer loop
    vertex 50.0 228.0 0.9999999999999999
    vertex 47.00000000000001 224.50000000000003 0.9999999999999999
    vertex 50.0 0.0 0.9999999999999999
  endloop
endfacet
facet normal -0.0 -1.0 -0.0
  outer loop
    vertex 50.0 0.0 0.9999999999999999
    vertex 0.0 0.0 0.0
    vertex 50.0 0.0 0.0
  endloop
endfacet
facet normal -0.0 -1.0 -0.0
  outer loop
    vertex 0.0 0.0 0.0
    vertex 50.0 0.0 0.9999999999999999
    vertex 0.0 0.0 0.9999999999999999
  endloop
endfacet
facet normal -1.0 0.0 0.0
  outer loop
    vertex 0.0 228.0 0.9999999999999999
    vertex 0.0 0.0 0.0
    vertex 0.0 0.0 0.9999999999999999
  endloop
endfacet
facet normal -1.0 0.0 0.0
  outer loop
    vertex 0.0 0.0 0.0
    vertex 0.0 228.0 0.9999999999999999
    vertex 0.0 228.0 0.0
  endloop
endfacet
facet normal -0.0 1.0 0.0
  outer loop
    vertex 0.0 228.0 0.9999999999999999
    vertex 50.0 228.0 0.0
    vertex 0.0 228.0 0.0
  endloop
endfacet
facet normal -0.0 1.0 0.0
  outer loop
    vertex 50.0 228.0 0.0
    vertex 0.0 228.0 0.9999999999999999
    vertex 50.0 228.0 0.9999999999999999
  endloop
endfacet
facet normal 1.0 0.0 0.0
  outer loop
    vertex 50.0 228.0 0.0
    vertex 50.0 0.0 0.9999999999999999
    vertex 50.0 0.0 0.0
  endloop
endfacet
facet normal 1.0 0.0 0.0
  outer loop
    vertex 50.0 0.0 0.9999999999999999
    vertex 50.0 228.0 0.0
    vertex 50.0 228.0 0.9999999999999999
  endloop
endfacet
facet normal -0.0 1.0 0.0
  outer loop
    vertex 3.0 3.5 0.9999999999999999
    vertex 47.00000000000001 3.5 0.0
    vertex 3.0 3.5 0.0
  endloop
endfacet
facet normal -0.0 1.0 0.0
  outer loop
    vertex 47.00000000000001 3.5 0.0
    vertex 3.0 3.5 0.9999999999999999
    vertex 47.00000000000001 3.5 0.9999999999999999
  endloop
endfacet
facet normal -1.0 2.5520058665591832e-17 0.0
  outer loop
    vertex 47.00000000000001 224.50000000000003 0.9999999999999999
    vertex 47.00000000000001 3.5 0.0
    vertex 47.00000000000001 3.5 0.9999999999999999
  endloop
endfacet
facet normal -1.0 2.5520058665591832e-17 0.0
  outer loop
    vertex 47.00000000000001 3.5 0.0
    vertex 47.00000000000001 224.50000000000003 0.9999999999999999
    vertex 47.00000000000001 224.50000000000003 0.0
  endloop
endfacet
facet normal -0.0 -1.0 -0.0
  outer loop
    vertex 47.00000000000001 224.50000000000003 0.9999999999999999
    vertex 3.0 224.50000000000003 0.0
    vertex 47.00000000000001 224.50000000000003 0.0
  endloop
endfacet
facet normal -0.0 -1.0 -0.0
  outer loop
    vertex 3.0 224.50000000000003 0.0
    vertex 47.00000000000001 224.50000000000003 0.9999999999999999
    vertex 3.0 224.50000000000003 0.9999999999999999
  endloop
endfacet
facet normal 1.0 0.0 0.0
  outer loop
    vertex 3.0 224.50000000000003 0.0
    vertex 3.0 3.5 0.9999999999999999
    vertex 3.0 3.5 0.0
  endloop
endfacet
facet normal 1.0 0.0 0.0
  outer loop
    vertex 3.0 3.5 0.9999999999999999
    vertex 3.0 224.50000000000003 0.0
    vertex 3.0 224.50000000000003 0.9999999999999999
  endloop
endfacet
endsolid Untitled-6550caf8
